<svg width="21" height="22" viewBox="0 0 21 22" fill="none" xmlns="http://www.w3.org/2000/svg">
<path d="M3.24264 5.03551L0 1.79287L1.41421 0.378662L4.65685 3.6213H19.8986C20.4509 3.6213 20.8986 4.06902 20.8986 4.6213C20.8986 4.71862 20.8844 4.81543 20.8565 4.90865L18.4565 12.9087C18.3296 13.3317 17.9402 13.6214 17.4986 13.6214H5.24264V15.6214H16.2427V17.6214H4.24264C3.69035 17.6214 3.24264 17.1736 3.24264 16.6214V5.03551ZM4.74264 21.6214C3.91421 21.6214 3.24264 20.9498 3.24264 20.1214C3.24264 19.2929 3.91421 18.6214 4.74264 18.6214C5.57107 18.6214 6.24264 19.2929 6.24264 20.1214C6.24264 20.9498 5.57107 21.6214 4.74264 21.6214ZM16.7427 21.6214C15.9142 21.6214 15.2427 20.9498 15.2427 20.1214C15.2427 19.2929 15.9142 18.6214 16.7427 18.6214C17.5711 18.6214 18.2427 19.2929 18.2427 20.1214C18.2427 20.9498 17.5711 21.6214 16.7427 21.6214Z" fill="#E7EA5A"/>
</svg>
